<?xml version="1.0" encoding="utf-8"?>
<!-- Generator: Adobe Illustrator 22.1.0, SVG Export Plug-In . SVG Version: 6.00 Build 0)  -->
<svg version="1.1" id="_x38_8ce59e9-c4b8-4d1d-9d7a-ce0190159aa8"
	 xmlns="http://www.w3.org/2000/svg" xmlns:xlink="http://www.w3.org/1999/xlink" x="0px" y="0px" viewBox="0 0 235 237.4"
	 style="enable-background:new 0 0 235 237.4;" xml:space="preserve">
<style type="text/css">
	.st0{opacity:0.5;}
	.st1{fill:url(#SVGID_1_);}
	.st2{fill:#F5F5F5;}
	.st3{fill:#474954;}
	.st4{fill:#333333;}
	.st5{opacity:0.1;enable-background:new    ;}
	.st6{fill:#BE7C5E;}
	.st7{fill:url(#SVGID_2_);}
	.st8{fill:#F55F44;}
	.st9{fill:#FDA57D;}
	.st10{fill:url(#SVGID_3_);}
	.st11{fill:url(#SVGID_4_);}
	.st12{fill:#72351C;}
	.st13{fill:url(#SVGID_5_);}
	.st14{fill:#FDB797;}
	.st15{fill:url(#SVGID_6_);}
	.st16{fill:none;stroke:#333333;stroke-width:2;stroke-miterlimit:10;}
	.st17{fill:#858585;}
	.st18{fill:none;stroke:#333333;stroke-width:2;stroke-linecap:round;stroke-linejoin:round;}
	.st19{fill:url(#SVGID_7_);}
	.st20{fill:#FDD835;}
	.st21{fill:url(#SVGID_8_);}
</style>
<g class="st0">
	
		<linearGradient id="SVGID_1_" gradientUnits="userSpaceOnUse" x1="115.89" y1="26.38" x2="115.89" y2="258.16" gradientTransform="matrix(1 0 0 -1 0 262)">
		<stop  offset="0" style="stop-color:#808080;stop-opacity:0.25"/>
		<stop  offset="0.54" style="stop-color:#808080;stop-opacity:0.12"/>
		<stop  offset="1" style="stop-color:#808080;stop-opacity:0.1"/>
	</linearGradient>
	<circle class="st1" cx="115.9" cy="119.7" r="115.9"/>
</g>
<circle class="st2" cx="116.1" cy="119" r="113.4"/>
<path class="st3" d="M116.2,232.9c22.2,0,43.8-6.5,62.4-18.7c-4.2-22.8-20.1-24.1-20.1-24.1H70.7c0,0-15,1.2-19.7,22.2
	C70.1,225.7,92.9,232.9,116.2,232.9z"/>
<circle class="st4" cx="115" cy="116.6" r="54.8"/>
<path class="st5" d="M97.3,162.2h35.1l0,0v28.1c0,9.7-7.9,17.5-17.5,17.5h0l0,0c-9.7,0-17.5-7.9-17.5-17.5l0,0L97.3,162.2
	L97.3,162.2z"/>
<path class="st14" d="M100.7,160.9h28.4c1.9,0,3.4,1.5,3.4,3.4l0,0V189c0,9.7-7.9,17.5-17.5,17.5h0l0,0c-9.7,0-17.5-7.8-17.6-17.5
	c0,0,0,0,0,0v-24.8C97.3,162.4,98.8,160.9,100.7,160.9C100.7,160.9,100.7,160.9,100.7,160.9L100.7,160.9z"/>
<path class="st5" d="M97.4,175.5c11.3,4.2,23.8,4.3,35.1,0.1v-4.3H97.4V175.5z"/>
<circle class="st14" cx="115" cy="127.5" r="50.3"/>
<path class="st5" d="M79.2,81.8c0,0,21.2,43,81,18l-13.9-21.8l-24.7-8.9L79.2,81.8z"/>
<path class="st4" d="M79.2,81.1c0,0,21.2,43,81,18l-13.9-21.8l-24.7-8.9L79.2,81.1z"/>
<path class="st4" d="M79,78.2c1.4-4.4,3.9-8.4,7.2-11.7c9.9-9.8,26.1-11.8,34.4-23c1.8,3.1,0.7,7.1-2.4,8.9
	c-0.2,0.1-0.4,0.2-0.6,0.3c8,0,17.2-0.8,21.7-7.3c2.3,5.3,1.3,11.4-2.5,15.7c7.1,0.3,14.6,5.1,15.1,12.2c0.3,4.7-2.6,9.1-6.5,11.9
	s-8.5,3.9-13.1,5C118.8,93.1,70.3,105.5,79,78.2z"/>
<ellipse class="st14" cx="64.7" cy="127.5" rx="4.7" ry="8.8"/>
<ellipse class="st14" cx="165.3" cy="127.5" rx="4.7" ry="8.8"/>
</svg>
